Shantell SemiOrganic Wght-Style_1.ufo
<glyph name="period" format="2">
  <advance width="287"/>
  <unicode hex="002E"/>
  <outline>
    <contour>
      <point x="157" y="-10" type="curve" smooth="yes"/>
      <point x="191.1818181818" y="-10"/>
      <point x="204" y="16"/>
      <point x="204" y="41" type="curve" smooth="yes"/>
      <point x="204" y="76"/>
      <point x="174.8648648649" y="119"/>
      <point x="127" y="119" type="curve" smooth="yes"/>
      <point x="101" y="119"/>
      <point x="79" y="99"/>
      <point x="79" y="71" type="curve" smooth="yes"/>
      <point x="79" y="30"/>
      <point x="115" y="-10"/>
    </contour>
  </outline>
</glyph>
<glyph name="four" format="2">
  <advance width="700"/>
  <unicode hex="0034"/>
  <image fileName="zero.png" xScale="2.3662938837" yScale="2.3662938837" xOffset="-2868.8248343698" yOffset="-192.644631698" color="0,0,0,0.16492"/>
  <outline>
    <contour>
      <point x="378" y="157" type="curve" smooth="yes"/>
      <point x="378" y="277"/>
      <point x="425" y="396"/>
      <point x="425" y="543" type="curve" smooth="yes"/>
      <point x="425" y="596"/>
      <point x="420" y="632"/>
      <point x="410" y="662" type="curve"/>
      <point x="438" y="659" type="line"/>
      <point x="300" y="571"/>
      <point x="192" y="401"/>
      <point x="138" y="214" type="curve"/>
      <point x="114" y="252" type="line"/>
      <point x="149" y="237"/>
      <point x="156" y="236"/>
      <point x="175" y="236" type="curve" smooth="yes"/>
      <point x="298" y="236"/>
      <point x="399" y="287"/>
      <point x="566" y="287" type="curve" smooth="yes"/>
      <point x="613" y="287"/>
      <point x="639" y="271"/>
      <point x="639" y="249" type="curve" smooth="yes"/>
      <point x="639" y="233"/>
      <point x="625" y="222"/>
      <point x="592" y="222" type="curve" smooth="yes"/>
      <point x="413" y="222"/>
      <point x="310" y="170"/>
      <point x="168" y="170" type="curve" smooth="yes"/>
      <point x="116" y="170"/>
      <point x="83" y="199"/>
      <point x="83" y="242" type="curve" smooth="yes"/>
      <point x="83" y="267"/>
      <point x="89" y="286"/>
      <point x="107" y="329" type="curve" smooth="yes"/>
      <point x="195" y="540"/>
      <point x="351" y="715"/>
      <point x="438" y="715" type="curve" smooth="yes"/>
      <point x="478" y="715"/>
      <point x="492" y="663"/>
      <point x="492" y="545" type="curve" smooth="yes"/>
      <point x="492" y="403"/>
      <point x="445" y="298"/>
      <point x="445" y="148" type="curve" smooth="yes"/>
      <point x="445" y="90"/>
      <point x="455" y="65"/>
      <point x="455" y="33" type="curve" smooth="yes"/>
      <point x="455" y="5"/>
      <point x="443" y="-11"/>
      <point x="425" y="-11" type="curve" smooth="yes"/>
      <point x="391" y="-11"/>
      <point x="378" y="39"/>
    </contour>
  </outline>
</glyph>
<glyph name="five" format="2">
  <advance width="700"/>
  <unicode hex="0035"/>
  <image fileName="zero.png" xScale="2.3662938837" yScale="2.3662938837" xOffset="-5227.8248343698" yOffset="-192.644631698" color="0,0,0,0.16492"/>
  <outline>
    <contour>
      <point x="572" y="596" type="curve" smooth="yes"/>
      <point x="422" y="602"/>
      <point x="355" y="577"/>
      <point x="180" y="580" type="curve"/>
      <point x="238" y="622" type="line"/>
      <point x="230" y="595"/>
      <point x="186" y="497"/>
      <point x="215" y="488" type="curve" smooth="yes"/>
      <point x="252" y="477"/>
      <point x="319" y="464"/>
      <point x="384" y="451" type="curve" smooth="yes"/>
      <point x="588" y="409"/>
      <point x="621" y="337"/>
      <point x="621" y="229" type="curve" smooth="yes"/>
      <point x="621" y="102"/>
      <point x="475" y="-12"/>
      <point x="252" y="-12" type="curve" smooth="yes"/>
      <point x="177" y="-12"/>
      <point x="130" y="26"/>
      <point x="114" y="51" type="curve" smooth="yes"/>
      <point x="97" y="79"/>
      <point x="106" y="117"/>
      <point x="133" y="134" type="curve" smooth="yes"/>
      <point x="161" y="151"/>
      <point x="199" y="142"/>
      <point x="216" y="115" type="curve" smooth="yes"/>
      <point x="220" y="108"/>
      <point x="237" y="108"/>
      <point x="252" y="108" type="curve" smooth="yes"/>
      <point x="377" y="108"/>
      <point x="501" y="156"/>
      <point x="501" y="239" type="curve" smooth="yes"/>
      <point x="501" y="297"/>
      <point x="440" y="317"/>
      <point x="360" y="333" type="curve" smooth="yes"/>
      <point x="291" y="347"/>
      <point x="220" y="361"/>
      <point x="179" y="374" type="curve" smooth="yes"/>
      <point x="100" y="399"/>
      <point x="54" y="436"/>
      <point x="124" y="658" type="curve" smooth="yes"/>
      <point x="132" y="683"/>
      <point x="155" y="700"/>
      <point x="182" y="700" type="curve" smooth="yes"/>
      <point x="359" y="697"/>
      <point x="426" y="722"/>
      <point x="576" y="716" type="curve" smooth="yes"/>
      <point x="609" y="715"/>
      <point x="635" y="686"/>
      <point x="634" y="654" type="curve" smooth="yes"/>
      <point x="633" y="621"/>
      <point x="604" y="595"/>
    </contour>
  </outline>
</glyph>
<glyph name="A" format="2">
  <advance width="713"/>
  <unicode hex="0041"/>
  <outline>
    <contour>
      <point x="605" y="-9" type="curve" smooth="yes"/>
      <point x="619" y="-9"/>
      <point x="628" y="1"/>
      <point x="628" y="19" type="curve" smooth="yes"/>
      <point x="628" y="71"/>
      <point x="569" y="165"/>
      <point x="543" y="397" type="curve" smooth="yes"/>
      <point x="520" y="612"/>
      <point x="511" y="710"/>
      <point x="403" y="710" type="curve" smooth="yes"/>
      <point x="338" y="710"/>
      <point x="287" y="650"/>
      <point x="223" y="519" type="curve"/>
      <point x="252" y="526" type="line"/>
      <point x="241" y="544"/>
      <point x="227" y="555"/>
      <point x="211" y="555" type="curve"/>
      <point x="195" y="555"/>
      <point x="186" y="541"/>
      <point x="186" y="520" type="curve" smooth="yes"/>
      <point x="186" y="351"/>
      <point x="93" y="188"/>
      <point x="93" y="39" type="curve" smooth="yes"/>
      <point x="93" y="3"/>
      <point x="106" y="-8"/>
      <point x="126" y="-8" type="curve" smooth="yes"/>
      <point x="141" y="-8"/>
      <point x="148" y="5"/>
      <point x="151" y="25" type="curve" smooth="yes"/>
      <point x="203" y="395"/>
      <point x="325" y="645"/>
      <point x="403" y="645" type="curve" smooth="yes"/>
      <point x="456" y="645"/>
      <point x="462" y="568"/>
      <point x="481" y="392" type="curve" smooth="yes"/>
      <point x="493" y="283"/>
      <point x="524" y="150"/>
      <point x="548" y="77" type="curve" smooth="yes"/>
      <point x="568" y="15"/>
      <point x="579" y="-9"/>
    </contour>
    <contour>
      <point x="70" y="194" type="curve" smooth="yes"/>
      <point x="169" y="196"/>
      <point x="244" y="264"/>
      <point x="607" y="264" type="curve" smooth="yes"/>
      <point x="642" y="264"/>
      <point x="672" y="284"/>
      <point x="672" y="303" type="curve" smooth="yes"/>
      <point x="672" y="324"/>
      <point x="667" y="330"/>
      <point x="623" y="330" type="curve" smooth="yes"/>
      <point x="409" y="330"/>
      <point x="217" y="305"/>
      <point x="72" y="248" type="curve" smooth="yes"/>
      <point x="50" y="239"/>
      <point x="44" y="230"/>
      <point x="44" y="216" type="curve" smooth="yes"/>
      <point x="44" y="208"/>
      <point x="57" y="194"/>
    </contour>
  </outline>
</glyph>
<glyph name="B" format="2">
  <advance width="553"/>
  <unicode hex="0042"/>
  <image fileName="B_.png" xScale="2.611894476" yScale="2.611894476" xOffset="-101.7903116164" yOffset="-300.367864743" color="0,0,0,0.25523"/>
  <outline>
    <contour>
      <point x="155" y="329" type="curve" smooth="yes"/>
      <point x="159" y="419"/>
      <point x="163" y="482"/>
      <point x="185" y="597" type="curve" smooth="yes"/>
      <point x="194" y="640"/>
      <point x="172" y="672"/>
      <point x="152" y="672" type="curve" smooth="yes"/>
      <point x="131" y="672"/>
      <point x="126" y="666"/>
      <point x="122" y="645" type="curve" smooth="yes"/>
      <point x="95" y="503"/>
      <point x="85" y="438"/>
      <point x="85" y="331" type="curve" smooth="yes"/>
      <point x="85" y="151"/>
      <point x="146" y="-10"/>
      <point x="247" y="-10" type="curve" smooth="yes"/>
      <point x="355" y="-10"/>
      <point x="493" y="94"/>
      <point x="493" y="193" type="curve" smooth="yes"/>
      <point x="493" y="256.5816993464"/>
      <point x="440" y="323"/>
      <point x="234" y="353" type="curve"/>
      <point x="235" y="331" type="line"/>
      <point x="447" y="383"/>
      <point x="519" y="465.4734299517"/>
      <point x="519" y="525" type="curve" smooth="yes"/>
      <point x="519" y="656"/>
      <point x="355.9583333333" y="712"/>
      <point x="155" y="712" type="curve" smooth="yes"/>
      <point x="90" y="712"/>
      <point x="53" y="696"/>
      <point x="53" y="670" type="curve" smooth="yes"/>
      <point x="53" y="659"/>
      <point x="66.3243243243" y="649"/>
      <point x="82" y="649" type="curve" smooth="yes"/>
      <point x="103" y="649"/>
      <point x="154" y="649"/>
      <point x="202" y="649" type="curve" smooth="yes"/>
      <point x="316" y="649"/>
      <point x="449" y="603"/>
      <point x="449" y="526" type="curve" smooth="yes"/>
      <point x="449" y="472"/>
      <point x="316" y="404"/>
      <point x="193" y="379" type="curve" smooth="yes"/>
      <point x="129" y="366"/>
      <point x="110" y="359"/>
      <point x="110" y="336" type="curve" smooth="yes"/>
      <point x="110" y="305"/>
      <point x="136" y="298"/>
      <point x="173" y="299" type="curve" smooth="yes"/>
      <point x="302" y="301"/>
      <point x="423" y="236"/>
      <point x="423" y="196" type="curve" smooth="yes"/>
      <point x="423" y="135"/>
      <point x="328" y="54"/>
      <point x="251" y="54" type="curve" smooth="yes"/>
      <point x="202" y="54"/>
      <point x="148" y="187"/>
    </contour>
  </outline>
</glyph>
<glyph name="C" format="2">
  <advance width="628"/>
  <unicode hex="0043"/>
  <image fileName="B_.png" xScale="2.611894476" yScale="2.611894476" xOffset="-677.7903116164" yOffset="-300.367864743" color="0,0,0,0.25523"/>
  <outline>
    <contour>
      <point x="331" y="-10" type="curve" smooth="yes"/>
      <point x="503.1679389313" y="-10"/>
      <point x="583" y="93.7045454545"/>
      <point x="583" y="146" type="curve" smooth="yes"/>
      <point x="583" y="164"/>
      <point x="576" y="179"/>
      <point x="563" y="179" type="curve" smooth="yes"/>
      <point x="527" y="179"/>
      <point x="505.4691358025" y="55"/>
      <point x="330" y="55" type="curve" smooth="yes"/>
      <point x="211" y="55"/>
      <point x="135" y="138"/>
      <point x="135" y="288" type="curve" smooth="yes"/>
      <point x="135" y="471"/>
      <point x="247" y="646"/>
      <point x="409" y="646" type="curve" smooth="yes"/>
      <point x="470" y="646"/>
      <point x="478" y="618"/>
      <point x="478" y="590" type="curve" smooth="yes"/>
      <point x="478" y="558"/>
      <point x="471" y="530"/>
      <point x="501" y="530" type="curve" smooth="yes"/>
      <point x="531" y="530"/>
      <point x="546" y="562"/>
      <point x="546" y="595" type="curve" smooth="yes"/>
      <point x="546" y="665"/>
      <point x="509" y="711"/>
      <point x="411" y="711" type="curve" smooth="yes"/>
      <point x="206" y="711"/>
      <point x="65" y="506"/>
      <point x="65" y="289" type="curve" smooth="yes"/>
      <point x="65" y="121"/>
      <point x="138" y="-10"/>
    </contour>
  </outline>
</glyph>
<glyph name="E" format="2">
  <advance width="673"/>
  <unicode hex="0045"/>
  <outline>
    <contour>
      <point x="157" y="569" type="curve" smooth="yes"/>
      <point x="113" y="500"/>
      <point x="76" y="393"/>
      <point x="76" y="293" type="curve" smooth="yes"/>
      <point x="76" y="119"/>
      <point x="184" y="-7"/>
      <point x="371" y="-7" type="curve" smooth="yes"/>
      <point x="552" y="-7"/>
      <point x="632" y="46"/>
      <point x="632" y="81" type="curve" smooth="yes"/>
      <point x="632" y="97"/>
      <point x="626" y="109"/>
      <point x="608" y="109" type="curve" smooth="yes"/>
      <point x="584.8782287823" y="109"/>
      <point x="541" y="58"/>
      <point x="367" y="58" type="curve" smooth="yes"/>
      <point x="234" y="58"/>
      <point x="145" y="153"/>
      <point x="146" y="295" type="curve" smooth="yes"/>
      <point x="147" y="401"/>
      <point x="191" y="512"/>
      <point x="254" y="602" type="curve" smooth="yes"/>
      <point x="277" y="635"/>
      <point x="267" y="646"/>
      <point x="241" y="646" type="curve" smooth="yes"/>
      <point x="208" y="646"/>
      <point x="182" y="609"/>
    </contour>
    <contour>
      <point x="165" y="286" type="curve" smooth="yes"/>
      <point x="234" y="302"/>
      <point x="367" y="319"/>
      <point x="459" y="325" type="curve" smooth="yes"/>
      <point x="497" y="327"/>
      <point x="532" y="335"/>
      <point x="532" y="365" type="curve" smooth="yes"/>
      <point x="532" y="378"/>
      <point x="522" y="386"/>
      <point x="486" y="386" type="curve" smooth="yes"/>
      <point x="424" y="385"/>
      <point x="278" y="369"/>
      <point x="175" y="352" type="curve" smooth="yes"/>
      <point x="132" y="345"/>
      <point x="108" y="333.40625"/>
      <point x="108" y="317" type="curve" smooth="yes"/>
      <point x="108" y="298.0847457627"/>
      <point x="122" y="276"/>
    </contour>
    <contour>
      <point x="138" y="616" type="curve" smooth="yes"/>
      <point x="218" y="616"/>
      <point x="296" y="643"/>
      <point x="575" y="643" type="curve" smooth="yes"/>
      <point x="608" y="643"/>
      <point x="620" y="660"/>
      <point x="620" y="683" type="curve" smooth="yes"/>
      <point x="620" y="697"/>
      <point x="610" y="708"/>
      <point x="591" y="708" type="curve" smooth="yes"/>
      <point x="462.9028077754" y="708"/>
      <point x="264.1689944935" y="699.1934307435"/>
      <point x="124" y="676" type="curve" smooth="yes"/>
      <point x="104.6895366848" y="671.6112583375"/>
      <point x="97" y="656"/>
      <point x="97" y="645" type="curve" smooth="yes"/>
      <point x="97" y="627"/>
      <point x="111" y="616"/>
    </contour>
  </outline>
</glyph>
<glyph name="H" format="2">
  <advance width="716"/>
  <unicode hex="0048"/>
  <outline>
    <contour>
      <point x="163" y="-12" type="curve" smooth="yes"/>
      <point x="177" y="-12"/>
      <point x="188" y="1"/>
      <point x="188" y="16" type="curve" smooth="yes"/>
      <point x="188" y="167"/>
      <point x="193" y="386"/>
      <point x="193" y="610" type="curve" smooth="yes"/>
      <point x="193" y="677"/>
      <point x="176" y="709"/>
      <point x="154" y="709" type="curve" smooth="yes"/>
      <point x="135" y="709"/>
      <point x="126" y="698"/>
      <point x="126" y="674" type="curve" smooth="yes"/>
      <point x="126" y="370"/>
      <point x="121" y="259"/>
      <point x="121" y="75" type="curve" smooth="yes"/>
      <point x="121" y="10"/>
      <point x="143" y="-12"/>
    </contour>
    <contour>
      <point x="585" y="-10" type="curve" smooth="yes"/>
      <point x="597" y="-10"/>
      <point x="609" y="5"/>
      <point x="603" y="33" type="curve" smooth="yes"/>
      <point x="590" y="112"/>
      <point x="585" y="176"/>
      <point x="584" y="233" type="curve" smooth="yes"/>
      <point x="583" y="332"/>
      <point x="590" y="488"/>
      <point x="590" y="614" type="curve" smooth="yes"/>
      <point x="590" y="672"/>
      <point x="571" y="704"/>
      <point x="551" y="704" type="curve" smooth="yes"/>
      <point x="536" y="704"/>
      <point x="523" y="693"/>
      <point x="523" y="668" type="curve" smooth="yes"/>
      <point x="523" y="581"/>
      <point x="516" y="450"/>
      <point x="516" y="311" type="curve" smooth="yes"/>
      <point x="516" y="67"/>
      <point x="529" y="-10"/>
    </contour>
    <contour>
      <point x="118" y="312" type="curve" smooth="yes"/>
      <point x="187" y="312"/>
      <point x="299" y="342"/>
      <point x="610" y="342" type="curve" smooth="yes"/>
      <point x="642" y="342"/>
      <point x="661" y="353"/>
      <point x="661" y="371" type="curve" smooth="yes"/>
      <point x="661" y="384"/>
      <point x="639" y="405"/>
      <point x="577" y="405" type="curve" smooth="yes"/>
      <point x="412" y="405"/>
      <point x="260" y="392"/>
      <point x="87" y="371" type="curve" smooth="yes"/>
      <point x="62" y="368"/>
      <point x="55" y="353"/>
      <point x="55" y="342" type="curve" smooth="yes"/>
      <point x="55" y="327"/>
      <point x="77" y="312"/>
    </contour>
  </outline>
</glyph>
<glyph name="J" format="2">
  <advance width="584"/>
  <unicode hex="004A"/>
  <image fileName="B_.png" xScale="2.611894476" yScale="2.611894476" xOffset="-1334.7903116164" yOffset="-291.367864743" color="0,0,0,0.25523"/>
  <outline>
    <contour>
      <point x="279" y="-12" type="curve" smooth="yes"/>
      <point x="429" y="-12"/>
      <point x="510" y="50"/>
      <point x="510" y="186" type="curve" smooth="yes"/>
      <point x="510" y="300"/>
      <point x="468" y="496"/>
      <point x="421" y="622" type="curve" smooth="yes"/>
      <point x="407" y="662"/>
      <point x="392" y="676"/>
      <point x="358" y="676" type="curve" smooth="yes"/>
      <point x="332" y="676"/>
      <point x="334" y="644"/>
      <point x="346" y="615" type="curve" smooth="yes"/>
      <point x="395" y="496"/>
      <point x="442" y="296"/>
      <point x="442" y="192" type="curve" smooth="yes"/>
      <point x="442" y="97"/>
      <point x="402" y="53"/>
      <point x="279" y="53" type="curve" smooth="yes"/>
      <point x="185" y="53"/>
      <point x="144" y="101"/>
      <point x="144" y="173" type="curve" smooth="yes"/>
      <point x="144" y="217"/>
      <point x="176" y="232"/>
      <point x="176" y="258" type="curve" smooth="yes"/>
      <point x="176" y="274"/>
      <point x="168" y="281"/>
      <point x="154" y="281" type="curve" smooth="yes"/>
      <point x="123" y="281"/>
      <point x="76" y="221"/>
      <point x="76" y="161" type="curve" smooth="yes"/>
      <point x="76" y="53"/>
      <point x="159" y="-12"/>
    </contour>
    <contour>
      <point x="145" y="634" type="curve" smooth="yes"/>
      <point x="225" y="634"/>
      <point x="351" y="646"/>
      <point x="481" y="646" type="curve" smooth="yes"/>
      <point x="514" y="646"/>
      <point x="531" y="657"/>
      <point x="531" y="676" type="curve" smooth="yes"/>
      <point x="531" y="705"/>
      <point x="507" y="712"/>
      <point x="485" y="712" type="curve" smooth="yes"/>
      <point x="339" y="712"/>
      <point x="265" y="700"/>
      <point x="160" y="700" type="curve" smooth="yes"/>
      <point x="119" y="700"/>
      <point x="113" y="713"/>
      <point x="86" y="713" type="curve" smooth="yes"/>
      <point x="68" y="713"/>
      <point x="58" y="703"/>
      <point x="58" y="687" type="curve" smooth="yes"/>
      <point x="58" y="649"/>
      <point x="109" y="634"/>
    </contour>
  </outline>
</glyph>
<glyph name="M" format="2">
  <advance width="936"/>
  <unicode hex="004D"/>
  <image fileName="B_.png" xScale="2.611894476" yScale="2.611894476" xOffset="-3165.7903116164" yOffset="-300.367864743" color="0,0,0,0.25523"/>
  <outline>
    <contour>
      <point x="187" y="586" type="curve" smooth="yes"/>
      <point x="194" y="557"/>
      <point x="197" y="537"/>
      <point x="198" y="509" type="curve" smooth="yes"/>
      <point x="204" y="411"/>
      <point x="118" y="412"/>
      <point x="149" y="508" type="curve" smooth="yes"/>
      <point x="190" y="632"/>
      <point x="245" y="709"/>
      <point x="294" y="709" type="curve" smooth="yes"/>
      <point x="372" y="709"/>
      <point x="420" y="600"/>
      <point x="453" y="348" type="curve" smooth="yes"/>
      <point x="463" y="284"/>
      <point x="475" y="218"/>
      <point x="491" y="162" type="curve" smooth="yes"/>
      <point x="499" y="135"/>
      <point x="446" y="146"/>
      <point x="462" y="192" type="curve" smooth="yes"/>
      <point x="505" y="313"/>
      <point x="537" y="445"/>
      <point x="567" y="528" type="curve" smooth="yes"/>
      <point x="613" y="655"/>
      <point x="645" y="710"/>
      <point x="706" y="710" type="curve" smooth="yes"/>
      <point x="761" y="710"/>
      <point x="807" y="675"/>
      <point x="829" y="465" type="curve" smooth="yes"/>
      <point x="842" y="337"/>
      <point x="867" y="175"/>
      <point x="908" y="62" type="curve" smooth="yes"/>
      <point x="923.3687343622" y="19.9921260767"/>
      <point x="916" y="-9"/>
      <point x="877" y="-9" type="curve" smooth="yes"/>
      <point x="838" y="-9"/>
      <point x="815.6265381708" y="5.6768995654"/>
      <point x="784" y="63" type="curve" smooth="yes"/>
      <point x="741" y="142"/>
      <point x="725.8309958976" y="306.5773716226"/>
      <point x="714" y="417" type="curve" smooth="yes"/>
      <point x="708" y="478"/>
      <point x="699" y="526"/>
      <point x="683" y="580" type="curve" smooth="yes"/>
      <point x="669" y="627"/>
      <point x="765" y="645"/>
      <point x="723" y="566" type="curve" smooth="yes"/>
      <point x="673" y="473"/>
      <point x="629" y="283"/>
      <point x="532" y="29" type="curve" smooth="yes"/>
      <point x="523" y="5"/>
      <point x="502" y="-9"/>
      <point x="478" y="-9" type="curve" smooth="yes"/>
      <point x="458" y="-9"/>
      <point x="435" y="2"/>
      <point x="419" y="26" type="curve" smooth="yes"/>
      <point x="377" y="89"/>
      <point x="352" y="211"/>
      <point x="335" y="332" type="curve" smooth="yes"/>
      <point x="324" y="417"/>
      <point x="311" y="483"/>
      <point x="285" y="546" type="curve" smooth="yes"/>
      <point x="257" y="618"/>
      <point x="342" y="636"/>
      <point x="296" y="553" type="curve" smooth="yes"/>
      <point x="241" y="444"/>
      <point x="202" y="255"/>
      <point x="202" y="28" type="curve" smooth="yes"/>
      <point x="202" y="2"/>
      <point x="180" y="-12"/>
      <point x="157" y="-12" type="curve" smooth="yes"/>
      <point x="121" y="-12"/>
      <point x="87" y="10"/>
      <point x="81" y="56" type="curve" smooth="yes"/>
      <point x="51" y="283"/>
      <point x="92" y="472"/>
      <point x="58" y="612" type="curve" smooth="yes"/>
      <point x="53" y="633"/>
      <point x="67" y="660"/>
      <point x="92" y="660" type="curve" smooth="yes"/>
      <point x="133" y="660"/>
      <point x="176" y="639"/>
    </contour>
  </outline>
</glyph>
<glyph name="N" format="2">
  <advance width="773"/>
  <unicode hex="004E"/>
  <outline>
    <contour>
      <point x="117" y="-8" type="curve" smooth="yes"/>
      <point x="134.5263157895" y="-8"/>
      <point x="148.1324752088" y="8.4636632309"/>
      <point x="154" y="29" type="curve" smooth="yes"/>
      <point x="182" y="114"/>
      <point x="193" y="217"/>
      <point x="193" y="342" type="curve" smooth="yes"/>
      <point x="193" y="419.6363636364"/>
      <point x="188" y="515"/>
      <point x="175" y="641" type="curve"/>
      <point x="163" y="628" type="line"/>
      <point x="366" y="450"/>
      <point x="374" y="-10"/>
      <point x="567" y="-10" type="curve" smooth="yes"/>
      <point x="645" y="-10"/>
      <point x="658" y="95.8988326848"/>
      <point x="658" y="242" type="curve" smooth="yes"/>
      <point x="658" y="391"/>
      <point x="643" y="506"/>
      <point x="669" y="635" type="curve" smooth="yes"/>
      <point x="675.9553280725" y="671.7638769548"/>
      <point x="663.4358974359" y="705"/>
      <point x="638" y="705" type="curve" smooth="yes"/>
      <point x="616.6129032258" y="705"/>
      <point x="606.0925269409" y="692.4229803011"/>
      <point x="599" y="660" type="curve" smooth="yes"/>
      <point x="572" y="538"/>
      <point x="588" y="394"/>
      <point x="588" y="237" type="curve" smooth="yes"/>
      <point x="588" y="149"/>
      <point x="587" y="108"/>
      <point x="554" y="66" type="curve"/>
      <point x="576" y="68" type="line"/>
      <point x="438" y="96"/>
      <point x="354" y="710"/>
      <point x="156" y="710" type="curve" smooth="yes"/>
      <point x="124" y="710"/>
      <point x="107" y="678.2077922078"/>
      <point x="107" y="638" type="curve" smooth="yes"/>
      <point x="107" y="605"/>
      <point x="123" y="457"/>
      <point x="123" y="342" type="curve" smooth="yes"/>
      <point x="123" y="140.2525951557"/>
      <point x="83" y="96"/>
      <point x="83" y="43" type="curve" smooth="yes"/>
      <point x="83" y="4"/>
      <point x="98.6923076923" y="-8"/>
    </contour>
  </outline>
</glyph>
<glyph name="P" format="2">
  <advance width="590"/>
  <unicode hex="0050"/>
  <image fileName="B_.png" xScale="2.611894476" yScale="2.611894476" xOffset="-4065.7903116164" yOffset="-300.367864743" color="0,0,0,0.25523"/>
  <outline>
    <contour>
      <point x="90" y="91" type="curve" smooth="yes"/>
      <point x="86" y="21"/>
      <point x="123" y="-10"/>
      <point x="171" y="-10" type="curve" smooth="yes"/>
      <point x="194" y="-10"/>
      <point x="213" y="9"/>
      <point x="215" y="34" type="curve" smooth="yes"/>
      <point x="227" y="235"/>
      <point x="163" y="344"/>
      <point x="163" y="466" type="curve" smooth="yes"/>
      <point x="163" y="544.9411764706"/>
      <point x="212" y="588"/>
      <point x="309" y="588" type="curve" smooth="yes"/>
      <point x="373" y="588"/>
      <point x="433" y="552.4090909091"/>
      <point x="433" y="480" type="curve" smooth="yes"/>
      <point x="433" y="394"/>
      <point x="354" y="308"/>
      <point x="256" y="308" type="curve" smooth="yes"/>
      <point x="198" y="308"/>
      <point x="186" y="326"/>
      <point x="160" y="326" type="curve" smooth="yes"/>
      <point x="137" y="326"/>
      <point x="119" y="311"/>
      <point x="119" y="283" type="curve" smooth="yes"/>
      <point x="119" y="234"/>
      <point x="179" y="188"/>
      <point x="261" y="188" type="curve" smooth="yes"/>
      <point x="426" y="188"/>
      <point x="553" y="336"/>
      <point x="553" y="480" type="curve" smooth="yes"/>
      <point x="553" y="625"/>
      <point x="443" y="708"/>
      <point x="309" y="708" type="curve" smooth="yes"/>
      <point x="118" y="708"/>
      <point x="43" y="611"/>
      <point x="43" y="466" type="curve" smooth="yes"/>
      <point x="43" y="349"/>
      <point x="100" y="245"/>
    </contour>
  </outline>
</glyph>
<glyph name="T" format="2">
  <advance width="647"/>
  <unicode hex="0054"/>
  <outline>
    <contour>
      <point x="285" y="616" type="curve" smooth="yes"/>
      <point x="261" y="334"/>
      <point x="273" y="170"/>
      <point x="282" y="89" type="curve" smooth="yes"/>
      <point x="291" y="9"/>
      <point x="312.4925373134" y="-13"/>
      <point x="335" y="-13" type="curve" smooth="yes"/>
      <point x="350" y="-13"/>
      <point x="361" y="-6"/>
      <point x="361" y="13" type="curve" smooth="yes"/>
      <point x="361" y="56"/>
      <point x="326" y="167"/>
      <point x="350" y="544" type="curve" smooth="yes"/>
      <point x="355" y="632"/>
      <point x="345" y="660"/>
      <point x="314" y="660" type="curve" smooth="yes"/>
      <point x="297" y="660"/>
      <point x="287" y="642"/>
    </contour>
    <contour>
      <point x="134" y="643" type="curve" smooth="yes"/>
      <point x="262" y="639"/>
      <point x="337" y="635"/>
      <point x="489" y="635" type="curve" smooth="yes"/>
      <point x="552.6041666667" y="635"/>
      <point x="618" y="650"/>
      <point x="618" y="685" type="curve" smooth="yes"/>
      <point x="618" y="700"/>
      <point x="607.7872340426" y="711"/>
      <point x="586" y="711" type="curve" smooth="yes"/>
      <point x="539.2914285714" y="711"/>
      <point x="515" y="700"/>
      <point x="452" y="700" type="curve" smooth="yes"/>
      <point x="317" y="700"/>
      <point x="245" y="706"/>
      <point x="80" y="706" type="curve" smooth="yes"/>
      <point x="52" y="706"/>
      <point x="41" y="697"/>
      <point x="41" y="685" type="curve" smooth="yes"/>
      <point x="41" y="663.4090909091"/>
      <point x="56" y="645"/>
    </contour>
  </outline>
</glyph>
<glyph name="U" format="2">
  <advance width="666"/>
  <unicode hex="0055"/>
  <outline>
    <contour>
      <point x="355" y="-13" type="curve" smooth="yes"/>
      <point x="516.2204724409" y="-13"/>
      <point x="589" y="114"/>
      <point x="589" y="298" type="curve" smooth="yes"/>
      <point x="589" y="422"/>
      <point x="576" y="536"/>
      <point x="594" y="660" type="curve" smooth="yes"/>
      <point x="600" y="702"/>
      <point x="593" y="712"/>
      <point x="572" y="712" type="curve" smooth="yes"/>
      <point x="535" y="712"/>
      <point x="510" y="676"/>
      <point x="510" y="615" type="curve" smooth="yes"/>
      <point x="510" y="498"/>
      <point x="518" y="429"/>
      <point x="518" y="305" type="curve" smooth="yes"/>
      <point x="518" y="133"/>
      <point x="468" y="55"/>
      <point x="348" y="55" type="curve" smooth="yes"/>
      <point x="231" y="55"/>
      <point x="141" y="144"/>
      <point x="162" y="413" type="curve" smooth="yes"/>
      <point x="171" y="530"/>
      <point x="165" y="616"/>
      <point x="152" y="663" type="curve" smooth="yes"/>
      <point x="142" y="703"/>
      <point x="120" y="716"/>
      <point x="104" y="716" type="curve"/>
      <point x="85" y="716"/>
      <point x="76" y="702"/>
      <point x="76" y="670" type="curve" smooth="yes"/>
      <point x="76" y="600"/>
      <point x="105" y="596"/>
      <point x="92" y="399" type="curve" smooth="yes"/>
      <point x="76.0046329984" y="154.0709427886"/>
      <point x="150.5477031802" y="-13"/>
    </contour>
  </outline>
</glyph>
<glyph name="W" format="2">
  <advance width="938"/>
  <unicode hex="0057"/>
  <image fileName="W_.png" xScale="2.149419181" yScale="2.149419181" xOffset="-6246.5221094932" yOffset="-188.078106569" color="0,0,0,0.26332"/>
  <outline>
    <contour>
      <point x="123" y="637" type="curve" smooth="yes"/>
      <point x="120" y="687"/>
      <point x="114" y="712"/>
      <point x="81" y="712" type="curve" smooth="yes"/>
      <point x="57" y="712"/>
      <point x="48" y="688"/>
      <point x="50" y="663" type="curve" smooth="yes"/>
      <point x="64" y="468"/>
      <point x="134" y="168"/>
      <point x="196" y="49" type="curve" smooth="yes"/>
      <point x="221" y="2"/>
      <point x="241" y="-8"/>
      <point x="266" y="-8" type="curve" smooth="yes"/>
      <point x="291" y="-8"/>
      <point x="311" y="11"/>
      <point x="315" y="42" type="curve" smooth="yes"/>
      <point x="343" y="243"/>
      <point x="387" y="491"/>
      <point x="476" y="593" type="curve" smooth="yes"/>
      <point x="494" y="613"/>
      <point x="444" y="621"/>
      <point x="466" y="596" type="curve" smooth="yes"/>
      <point x="544" y="504"/>
      <point x="529" y="178"/>
      <point x="600" y="60" type="curve" smooth="yes"/>
      <point x="640" y="-6"/>
      <point x="665" y="-12"/>
      <point x="692" y="-12" type="curve" smooth="yes"/>
      <point x="711" y="-12"/>
      <point x="727" y="1"/>
      <point x="744" y="42" type="curve" smooth="yes"/>
      <point x="803" y="188"/>
      <point x="834" y="496"/>
      <point x="873" y="625" type="curve" smooth="yes"/>
      <point x="889" y="678"/>
      <point x="889" y="712"/>
      <point x="864" y="712" type="curve" smooth="yes"/>
      <point x="841" y="712"/>
      <point x="831" y="705"/>
      <point x="813" y="661" type="curve" smooth="yes"/>
      <point x="751" y="504"/>
      <point x="737" y="206"/>
      <point x="674" y="58" type="curve" smooth="yes"/>
      <point x="668" y="44"/>
      <point x="694" y="47"/>
      <point x="683" y="62" type="curve" smooth="yes"/>
      <point x="604" y="175"/>
      <point x="617" y="361"/>
      <point x="584" y="489" type="curve" smooth="yes"/>
      <point x="551" y="610"/>
      <point x="535" y="652"/>
      <point x="477" y="652" type="curve" smooth="yes"/>
      <point x="441" y="652"/>
      <point x="408" y="622"/>
      <point x="382" y="581" type="curve" smooth="yes"/>
      <point x="321" y="487"/>
      <point x="280" y="289"/>
      <point x="247" y="50" type="curve" smooth="yes"/>
      <point x="243" y="18"/>
      <point x="268" y="25"/>
      <point x="258" y="55" type="curve" smooth="yes"/>
      <point x="192" y="250"/>
      <point x="132" y="505"/>
    </contour>
  </outline>
</glyph>
<glyph name="X" format="2">
  <advance width="587"/>
  <unicode hex="0058"/>
  <image fileName="W_.png" xScale="2.1183007847" xyScale="-0.3644236559" yxScale="0.3644236559" yScale="2.1183007847" xOffset="-7152.8449585541" yOffset="1029.1221139848" color="0,0,0,0.26332"/>
  <outline>
    <contour>
      <point x="131" y="681" type="curve" smooth="yes"/>
      <point x="174" y="511"/>
      <point x="444" y="213"/>
      <point x="506" y="95" type="curve" smooth="yes"/>
      <point x="544" y="21"/>
      <point x="524" y="-6"/>
      <point x="503" y="-6" type="curve" smooth="yes"/>
      <point x="491" y="-6"/>
      <point x="479" y="1"/>
      <point x="453" y="47" type="curve" smooth="yes"/>
      <point x="365" y="213"/>
      <point x="152" y="434"/>
      <point x="91" y="591" type="curve" smooth="yes"/>
      <point x="56" y="684"/>
      <point x="67" y="709"/>
      <point x="95" y="709" type="curve" smooth="yes"/>
      <point x="114" y="709"/>
      <point x="126" y="700"/>
    </contour>
    <contour>
      <point x="506" y="618" type="curve" smooth="yes"/>
      <point x="391" y="512"/>
      <point x="237" y="296"/>
      <point x="102" y="29" type="curve" smooth="yes"/>
      <point x="84" y="-7"/>
      <point x="72" y="-13"/>
      <point x="57" y="-13" type="curve" smooth="yes"/>
      <point x="31" y="-13"/>
      <point x="19" y="13"/>
      <point x="47" y="72" type="curve" smooth="yes"/>
      <point x="117" y="216"/>
      <point x="330" y="547"/>
      <point x="486" y="692" type="curve" smooth="yes"/>
      <point x="502" y="706"/>
      <point x="510" y="709"/>
      <point x="518" y="709" type="curve" smooth="yes"/>
      <point x="540" y="709"/>
      <point x="559" y="668"/>
    </contour>
  </outline>
</glyph>
<glyph name="d" format="2">
  <advance width="613"/>
  <unicode hex="0064"/>
  <outline>
    <contour>
      <point x="253" y="-9" type="curve" smooth="yes"/>
      <point x="333" y="-9"/>
      <point x="432" y="52"/>
      <point x="466" y="220" type="curve"/>
      <point x="413" y="235" type="line"/>
      <point x="403" y="105"/>
      <point x="465" y="-14"/>
      <point x="537" y="-14" type="curve" smooth="yes"/>
      <point x="575" y="-14"/>
      <point x="601" y="18"/>
      <point x="601" y="46" type="curve" smooth="yes"/>
      <point x="601" y="90"/>
      <point x="522" y="92"/>
      <point x="522" y="301" type="curve" smooth="yes"/>
      <point x="522" y="440"/>
      <point x="547" y="529"/>
      <point x="552" y="690" type="curve" smooth="yes"/>
      <point x="555" y="768"/>
      <point x="527" y="810"/>
      <point x="472" y="810" type="curve" smooth="yes"/>
      <point x="447" y="810"/>
      <point x="428" y="796"/>
      <point x="428" y="749" type="curve" smooth="yes"/>
      <point x="428" y="338"/>
      <point x="351" y="109"/>
      <point x="247" y="109" type="curve" smooth="yes"/>
      <point x="196" y="109"/>
      <point x="140" y="190"/>
      <point x="140" y="279" type="curve" smooth="yes"/>
      <point x="140" y="349"/>
      <point x="190" y="391"/>
      <point x="275" y="391" type="curve" smooth="yes"/>
      <point x="334" y="391"/>
      <point x="363" y="364"/>
      <point x="396" y="364" type="curve" smooth="yes"/>
      <point x="410" y="364"/>
      <point x="421" y="381"/>
      <point x="421" y="406" type="curve" smooth="yes"/>
      <point x="421" y="470"/>
      <point x="356" y="511"/>
      <point x="252" y="511" type="curve" smooth="yes"/>
      <point x="113" y="512"/>
      <point x="20" y="419"/>
      <point x="20" y="279" type="curve" smooth="yes"/>
      <point x="20" y="124"/>
      <point x="116" y="-9"/>
    </contour>
  </outline>
</glyph>
<glyph name="g" format="2">
  <advance width="600"/>
  <unicode hex="0067"/>
  <outline>
    <contour>
      <point x="430" y="463" type="curve" smooth="yes"/>
      <point x="456.0506329114" y="463"/>
      <point x="476.0057221545" y="427.9275193768"/>
      <point x="479" y="390" type="curve" smooth="yes"/>
      <point x="493" y="221"/>
      <point x="545" y="142"/>
      <point x="545" y="-59" type="curve" smooth="yes"/>
      <point x="545" y="-184"/>
      <point x="486.8947368421" y="-260"/>
      <point x="385" y="-260" type="curve" smooth="yes"/>
      <point x="190.1344827586" y="-260"/>
      <point x="112" y="-149.12"/>
      <point x="112" y="-71" type="curve" smooth="yes"/>
      <point x="112" y="-43"/>
      <point x="130" y="-19"/>
      <point x="152" y="-19" type="curve" smooth="yes"/>
      <point x="170" y="-19"/>
      <point x="178" y="-30"/>
      <point x="178" y="-51" type="curve" smooth="yes"/>
      <point x="178" y="-137"/>
      <point x="264.813559322" y="-194"/>
      <point x="375" y="-194" type="curve" smooth="yes"/>
      <point x="454" y="-194"/>
      <point x="478" y="-142.1935483871"/>
      <point x="478" y="-48" type="curve" smooth="yes"/>
      <point x="478" y="124.8280701754"/>
      <point x="426" y="208"/>
      <point x="414" y="328" type="curve"/>
      <point x="446" y="317" type="line"/>
      <point x="425.6506737575" y="163.3625868695"/>
      <point x="349.6954314721" y="91"/>
      <point x="242" y="91" type="curve" smooth="yes"/>
      <point x="127.1421319797" y="91"/>
      <point x="55" y="150.8762886598"/>
      <point x="55" y="267" type="curve" smooth="yes"/>
      <point x="55" y="386.4736842105"/>
      <point x="161" y="494"/>
      <point x="278" y="494" type="curve" smooth="yes"/>
      <point x="376" y="494"/>
      <point x="410" y="444.2347826087"/>
      <point x="410" y="397" type="curve" smooth="yes"/>
      <point x="410" y="384"/>
      <point x="399" y="363"/>
      <point x="386" y="363" type="curve" smooth="yes"/>
      <point x="345.8620689655" y="363"/>
      <point x="341" y="428"/>
      <point x="289" y="428" type="curve" smooth="yes"/>
      <point x="196" y="428"/>
      <point x="122" y="348.4109589041"/>
      <point x="122" y="262" type="curve" smooth="yes"/>
      <point x="122" y="193.6129032258"/>
      <point x="159" y="156"/>
      <point x="241" y="156" type="curve" smooth="yes"/>
      <point x="323" y="156"/>
      <point x="397" y="228"/>
      <point x="397" y="424" type="curve" smooth="yes"/>
      <point x="397" y="451"/>
      <point x="405" y="463"/>
    </contour>
  </outline>
</glyph>
<glyph name="h" format="2">
  <advance width="613"/>
  <unicode hex="0068"/>
  <outline>
    <contour>
      <point x="520" y="-10" type="curve" smooth="yes"/>
      <point x="536.3636363636" y="-10"/>
      <point x="550" y="3.75"/>
      <point x="550" y="20" type="curve" smooth="yes"/>
      <point x="550" y="31.8461538462"/>
      <point x="545.1546611495" y="42.690677701"/>
      <point x="540" y="53" type="curve" smooth="yes"/>
      <point x="520.335124402" y="88.1897773859"/>
      <point x="509.1992489216" y="131.6077611433"/>
      <point x="496" y="268" type="curve" smooth="yes"/>
      <point x="483.0970316562" y="409.9326517814"/>
      <point x="466" y="494"/>
      <point x="389" y="494" type="curve" smooth="yes"/>
      <point x="306" y="494"/>
      <point x="234" y="398"/>
      <point x="127" y="108" type="curve"/>
      <point x="145" y="106" type="line"/>
      <point x="141" y="295"/>
      <point x="202" y="491"/>
      <point x="202" y="645" type="curve" smooth="yes"/>
      <point x="202" y="766"/>
      <point x="184.9375" y="810"/>
      <point x="150" y="810" type="curve" smooth="yes"/>
      <point x="130.2" y="810"/>
      <point x="123" y="792"/>
      <point x="123" y="773" type="curve" smooth="yes"/>
      <point x="123" y="732"/>
      <point x="134" y="681"/>
      <point x="134" y="625" type="curve" smooth="yes"/>
      <point x="134" y="494"/>
      <point x="75" y="333"/>
      <point x="75" y="95" type="curve" smooth="yes"/>
      <point x="75" y="20"/>
      <point x="96.5384615385" y="-10"/>
      <point x="123" y="-10" type="curve" smooth="yes"/>
      <point x="144" y="-10"/>
      <point x="160" y="-2"/>
      <point x="169" y="28" type="curve" smooth="yes"/>
      <point x="242" y="279"/>
      <point x="343" y="429"/>
      <point x="388" y="429" type="curve"/>
      <point x="413" y="392"/>
      <point x="424" y="340"/>
      <point x="433" y="210" type="curve" smooth="yes"/>
      <point x="440.9649161561" y="96.4999447751"/>
      <point x="480.0823529412" y="-10"/>
    </contour>
  </outline>
</glyph>
<glyph name="i" format="2">
  <advance width="276"/>
  <unicode hex="0069"/>
  <outline>
    <contour>
      <point x="154" y="-7" type="curve" smooth="yes"/>
      <point x="183" y="-7"/>
      <point x="198" y="12"/>
      <point x="198" y="43" type="curve" smooth="yes"/>
      <point x="198" y="122"/>
      <point x="208.9999540519" y="372.0033542142"/>
      <point x="208" y="445" type="curve" smooth="yes"/>
      <point x="207.0000200325" y="497.9989382787"/>
      <point x="177.8550724638" y="526"/>
      <point x="143" y="526" type="curve" smooth="yes"/>
      <point x="105.0512820513" y="526"/>
      <point x="69" y="485"/>
      <point x="69" y="436" type="curve" smooth="yes"/>
      <point x="69" y="336"/>
      <point x="75" y="277"/>
      <point x="75" y="79" type="curve" smooth="yes"/>
      <point x="75" y="34"/>
      <point x="110" y="-7"/>
    </contour>
    <contour>
      <point x="159" y="622" type="curve" smooth="yes"/>
      <point x="204" y="622"/>
      <point x="221" y="645"/>
      <point x="221" y="665" type="curve" smooth="yes"/>
      <point x="221" y="731"/>
      <point x="182" y="813"/>
      <point x="117" y="813" type="curve" smooth="yes"/>
      <point x="80" y="813"/>
      <point x="50" y="783"/>
      <point x="50" y="743" type="curve" smooth="yes"/>
      <point x="50" y="681"/>
      <point x="100" y="622"/>
    </contour>
  </outline>
</glyph>
<glyph name="j" format="2">
  <advance width="241"/>
  <unicode hex="006A"/>
  <image fileName="b.png" xScale="2.580311745" yScale="2.580311745" xOffset="-1203.7840986768" yOffset="-580.570142633" color="0,0,0,0.24109"/>
  <outline>
    <contour>
      <point x="122" y="442" type="curve" smooth="yes"/>
      <point x="160" y="276"/>
      <point x="189" y="137"/>
      <point x="189" y="-40" type="curve" smooth="yes"/>
      <point x="189" y="-185"/>
      <point x="114" y="-260"/>
      <point x="0" y="-260" type="curve" smooth="yes"/>
      <point x="-86" y="-260"/>
      <point x="-135" y="-234"/>
      <point x="-135" y="-203" type="curve" smooth="yes"/>
      <point x="-135" y="-183"/>
      <point x="-123" y="-172"/>
      <point x="-105" y="-172" type="curve" smooth="yes"/>
      <point x="-70" y="-172"/>
      <point x="-51" y="-194"/>
      <point x="-9" y="-194" type="curve" smooth="yes"/>
      <point x="74" y="-194"/>
      <point x="122" y="-147"/>
      <point x="122" y="-52" type="curve" smooth="yes"/>
      <point x="122" y="296"/>
      <point x="46" y="377"/>
      <point x="46" y="454" type="curve" smooth="yes"/>
      <point x="46" y="484"/>
      <point x="60" y="496"/>
      <point x="75" y="496" type="curve" smooth="yes"/>
      <point x="93" y="496"/>
      <point x="112" y="485"/>
    </contour>
    <contour>
      <point x="130" y="677" type="curve" smooth="yes"/>
      <point x="169" y="677"/>
      <point x="184" y="704"/>
      <point x="184" y="725" type="curve" smooth="yes"/>
      <point x="184" y="759"/>
      <point x="152" y="801"/>
      <point x="101" y="801" type="curve" smooth="yes"/>
      <point x="74" y="801"/>
      <point x="53" y="781"/>
      <point x="53" y="756" type="curve" smooth="yes"/>
      <point x="53" y="716"/>
      <point x="89" y="677"/>
    </contour>
  </outline>
</glyph>
<glyph name="l" format="2">
  <advance width="327"/>
  <unicode hex="006C"/>
  <image fileName="b.png" xScale="2.580311745" yScale="2.580311745" xOffset="-2454.3109110762" yOffset="-580.570142633" color="0,0,0,0.24109"/>
  <outline>
    <contour>
      <point x="183" y="689" type="curve" smooth="yes"/>
      <point x="183" y="627"/>
      <point x="161" y="540"/>
      <point x="161" y="347" type="curve" smooth="yes"/>
      <point x="161" y="126.1590909091"/>
      <point x="193" y="110"/>
      <point x="215" y="110" type="curve" smooth="yes"/>
      <point x="233.2278481013" y="110"/>
      <point x="265.1265822785" y="140"/>
      <point x="287" y="140" type="curve" smooth="yes"/>
      <point x="317" y="140"/>
      <point x="327" y="117"/>
      <point x="327" y="85" type="curve" smooth="yes"/>
      <point x="327" y="25.5714285714"/>
      <point x="271.9208633094" y="-11"/>
      <point x="195" y="-11" type="curve" smooth="yes"/>
      <point x="127" y="-11"/>
      <point x="41" y="32"/>
      <point x="41" y="367" type="curve" smooth="yes"/>
      <point x="41" y="541"/>
      <point x="53" y="635"/>
      <point x="66" y="757" type="curve" smooth="yes"/>
      <point x="70" y="789"/>
      <point x="90" y="810"/>
      <point x="114" y="810" type="curve" smooth="yes"/>
      <point x="155" y="810"/>
      <point x="183" y="777"/>
    </contour>
  </outline>
</glyph>
<glyph name="n" format="2">
  <advance width="612"/>
  <unicode hex="006E"/>
  <outline>
    <contour>
      <point x="541" y="-10" type="curve" smooth="yes"/>
      <point x="573" y="-10"/>
      <point x="588" y="20"/>
      <point x="588" y="57" type="curve" smooth="yes"/>
      <point x="588" y="73"/>
      <point x="582" y="86"/>
      <point x="572" y="94" type="curve" smooth="yes"/>
      <point x="525.692267796" y="133.1220496207"/>
      <point x="524" y="211"/>
      <point x="524" y="356" type="curve" smooth="yes"/>
      <point x="524" y="445.8333333333"/>
      <point x="462.9534883721" y="510"/>
      <point x="399" y="510" type="curve" smooth="yes"/>
      <point x="309" y="510"/>
      <point x="208" y="422"/>
      <point x="147" y="226" type="curve"/>
      <point x="168" y="266" type="line"/>
      <point x="175.1165591592" y="364.6151769197"/>
      <point x="180" y="393.2321428571"/>
      <point x="180" y="437" type="curve" smooth="yes"/>
      <point x="180" y="485.7826086957"/>
      <point x="135.265060241" y="503"/>
      <point x="101" y="503" type="curve" smooth="yes"/>
      <point x="74" y="503"/>
      <point x="59" y="486"/>
      <point x="59" y="463" type="curve" smooth="yes"/>
      <point x="59" y="339.0547945205"/>
      <point x="45" y="286.698630137"/>
      <point x="45" y="151" type="curve" smooth="yes"/>
      <point x="45" y="58"/>
      <point x="71.9879518072" y="-9"/>
      <point x="125" y="-9" type="curve" smooth="yes"/>
      <point x="160.4782608696" y="-9"/>
      <point x="180.0118487309" y="9.0455720418"/>
      <point x="193" y="59" type="curve" smooth="yes"/>
      <point x="241.0169028207" y="236.0623291512"/>
      <point x="350.1979695431" y="387"/>
      <point x="389" y="387" type="curve" smooth="yes"/>
      <point x="403" y="387"/>
      <point x="415" y="383"/>
      <point x="432" y="377" type="curve"/>
      <point x="391" y="408" type="line"/>
      <point x="401" y="377"/>
      <point x="403" y="367"/>
      <point x="403" y="269" type="curve" smooth="yes"/>
      <point x="403" y="108"/>
      <point x="458" y="-10"/>
    </contour>
  </outline>
</glyph>
<glyph name="r" format="2">
  <advance width="468"/>
  <unicode hex="0072"/>
  <outline>
    <contour>
      <point x="153" y="-12" type="curve" smooth="yes"/>
      <point x="181.4107142857" y="-12"/>
      <point x="188" y="4"/>
      <point x="196" y="64" type="curve" smooth="yes"/>
      <point x="221" y="265"/>
      <point x="251.7966274036" y="385.9274795393"/>
      <point x="381" y="432" type="curve" smooth="yes"/>
      <point x="402.1745717786" y="439.4111001225"/>
      <point x="411" y="454.5609756098"/>
      <point x="411" y="469" type="curve" smooth="yes"/>
      <point x="411" y="484.0769230769"/>
      <point x="403" y="497"/>
      <point x="377" y="497" type="curve" smooth="yes"/>
      <point x="285" y="497"/>
      <point x="164" y="385"/>
      <point x="145" y="128" type="curve"/>
      <point x="169" y="84" type="line"/>
      <point x="181" y="410"/>
      <point x="116" y="489"/>
      <point x="78" y="489" type="curve" smooth="yes"/>
      <point x="62.4642857143" y="489"/>
      <point x="49" y="478"/>
      <point x="49" y="462" type="curve" smooth="yes"/>
      <point x="49" y="439"/>
      <point x="56.6543478767" y="425.2680122994"/>
      <point x="72" y="388" type="curve" smooth="yes"/>
      <point x="99.5573069162" y="319.6578788478"/>
      <point x="115" y="175"/>
      <point x="115" y="47" type="curve" smooth="yes"/>
      <point x="115" y="15"/>
      <point x="133.4571428571" y="-12"/>
    </contour>
  </outline>
</glyph>
<glyph name="s" format="2">
  <advance width="477"/>
  <unicode hex="0073"/>
  <outline>
    <contour>
      <point x="171" y="-10" type="curve" smooth="yes"/>
      <point x="315" y="-10"/>
      <point x="452" y="41"/>
      <point x="452" y="156" type="curve" smooth="yes"/>
      <point x="452" y="296"/>
      <point x="192" y="304"/>
      <point x="165" y="355" type="curve"/>
      <point x="201.2442247937" y="388.9789607441"/>
      <point x="274" y="391"/>
      <point x="359" y="391" type="curve" smooth="yes"/>
      <point x="383" y="391"/>
      <point x="402" y="405"/>
      <point x="402" y="430" type="curve" smooth="yes"/>
      <point x="402" y="468.6590909091"/>
      <point x="367.9987643701" y="510.000022466"/>
      <point x="313" y="511" type="curve" smooth="yes"/>
      <point x="189" y="514"/>
      <point x="42" y="451"/>
      <point x="42" y="344" type="curve" smooth="yes"/>
      <point x="42" y="209.2388888889"/>
      <point x="312.5793907608" y="199.9213345239"/>
      <point x="334" y="153" type="curve"/>
      <point x="315.4833527132" y="128.0025261629"/>
      <point x="240.0983606557" y="110"/>
      <point x="155" y="110" type="curve" smooth="yes"/>
      <point x="116" y="110"/>
      <point x="88" y="119"/>
      <point x="60" y="119" type="curve" smooth="yes"/>
      <point x="35" y="119"/>
      <point x="22" y="101"/>
      <point x="22" y="80" type="curve" smooth="yes"/>
      <point x="22" y="37.7"/>
      <point x="75" y="-10"/>
    </contour>
  </outline>
</glyph>
<glyph name="u" format="2">
  <advance width="579"/>
  <unicode hex="0075"/>
  <outline>
    <contour>
      <point x="303" y="-10" type="curve" smooth="yes"/>
      <point x="427" y="-10"/>
      <point x="525" y="116"/>
      <point x="525" y="376" type="curve" smooth="yes"/>
      <point x="525" y="480"/>
      <point x="495.4444444444" y="510"/>
      <point x="448" y="510" type="curve" smooth="yes"/>
      <point x="412" y="510"/>
      <point x="402" y="490"/>
      <point x="402" y="457" type="curve" smooth="yes"/>
      <point x="402" y="430"/>
      <point x="405" y="403"/>
      <point x="405" y="375" type="curve" smooth="yes"/>
      <point x="405" y="215.374015748"/>
      <point x="363.6290322581" y="110"/>
      <point x="291" y="110" type="curve" smooth="yes"/>
      <point x="235.9523809524" y="110"/>
      <point x="155" y="224.2857142857"/>
      <point x="155" y="310" type="curve" smooth="yes"/>
      <point x="155" y="380"/>
      <point x="178" y="403"/>
      <point x="178" y="437" type="curve" smooth="yes"/>
      <point x="178" y="477"/>
      <point x="146.4096385542" y="510"/>
      <point x="109" y="510" type="curve" smooth="yes"/>
      <point x="89" y="510"/>
      <point x="73" y="497"/>
      <point x="67" y="480" type="curve" smooth="yes"/>
      <point x="45" y="424"/>
      <point x="35" y="371"/>
      <point x="35" y="310" type="curve" smooth="yes"/>
      <point x="35" y="176"/>
      <point x="140" y="-10"/>
    </contour>
  </outline>
</glyph>
<glyph name="y" format="2">
  <advance width="563"/>
  <unicode hex="0079"/>
  <image fileName="b.png" xScale="2.580311745" yScale="2.580311745" xOffset="-6701.815296469" yOffset="-580.570142633" color="0,0,0,0.24109"/>
  <outline>
    <contour>
      <point x="139" y="419" type="curve" smooth="yes"/>
      <point x="143.001486359" y="480.0226669746"/>
      <point x="140.2380952381" y="497"/>
      <point x="113" y="497" type="curve" smooth="yes"/>
      <point x="87.6875" y="497"/>
      <point x="68" y="472.1017964072"/>
      <point x="68" y="343" type="curve" smooth="yes"/>
      <point x="68" y="123.5862068966"/>
      <point x="132" y="28"/>
      <point x="236" y="28" type="curve" smooth="yes"/>
      <point x="294.8586956522" y="28"/>
      <point x="379" y="67"/>
      <point x="427" y="271" type="curve" smooth="yes"/>
      <point x="435" y="307"/>
      <point x="393.9942274747" y="336.0711944786"/>
      <point x="397" y="299" type="curve" smooth="yes"/>
      <point x="400" y="127"/>
      <point x="418" y="66"/>
      <point x="418" y="-5" type="curve" smooth="yes"/>
      <point x="418" y="-117.8358208955"/>
      <point x="386" y="-194"/>
      <point x="281" y="-194" type="curve" smooth="yes"/>
      <point x="188" y="-194"/>
      <point x="179" y="-174"/>
      <point x="151" y="-174" type="curve" smooth="yes"/>
      <point x="130" y="-174"/>
      <point x="121" y="-185"/>
      <point x="121" y="-201" type="curve" smooth="yes"/>
      <point x="121" y="-240"/>
      <point x="187" y="-261"/>
      <point x="283" y="-261" type="curve" smooth="yes"/>
      <point x="401" y="-261"/>
      <point x="485" y="-187"/>
      <point x="485" y="-5" type="curve" smooth="yes"/>
      <point x="485" y="187"/>
      <point x="445" y="231"/>
      <point x="462" y="400" type="curve" smooth="yes"/>
      <point x="469.9003250578" y="476.369808892"/>
      <point x="438.25" y="496"/>
      <point x="424" y="496" type="curve" smooth="yes"/>
      <point x="404" y="496"/>
      <point x="399" y="489"/>
      <point x="395" y="452" type="curve" smooth="yes"/>
      <point x="373.8176653786" y="247.5904709039"/>
      <point x="318" y="93"/>
      <point x="226" y="93" type="curve" smooth="yes"/>
      <point x="158.5505617978" y="93"/>
      <point x="127.0010268445" y="226.0165150818"/>
    </contour>
  </outline>
</glyph>
